<svg viewBox="0 0 32 32" xmlns="http://www.w3.org/2000/svg">
  <path d="M11 3C8.5 3 6.5 5 6.5 7.8c0 1.4.4 2.5.9 3.3l-.2.4c-.6.9-1.2 2.1-1.7 3.4-.15.4.15.6.4.4.6-.6 1.1-1.4 1.5-1.9.1.2.1.5 0 .9-.2 1.1-.15 2.1.2 2.9.15.2.4.15.45-.08.2-.9.2-1.7.15-2.4.3.3.75.75 1.35 1.1.2.15.45 0 .4-.2-.3-.75-.45-1.5-.4-2.1.4.2.9.4 1.5.4l.3 1.5c.08.4.2.9.3 1.35.08.2.3.2.4 0 .15-.5.15-1.1.15-1.6l.2-1.3c.5-.08.9-.2 1.3-.4l.4 1.35c.15.6.4 1.5.6 2.1.08.2.3.15.4-.08 0-.6-.08-1.35-.2-2l-.2-1.35c.5-.3 1-.75 1.3-1.2.2.6.3 1.35.2 2.1 0 .2.2.4.4.15.45-.75.6-1.65.5-2.4.45-.2.9-.7 1.1-1.05.4.45.85 1.05 1.35 1.5.2.15.45 0 .3-.3-.4-.9-.9-1.9-1.35-2.6.45-.75.75-1.75.75-2.9C15.5 5 13.5 3 11 3z" fill="#c4a35a" opacity="0.9"/>
  <ellipse cx="11" cy="7.2" rx="1.4" ry="1.1" fill="#c4a35a" opacity="0.4"/>
  <ellipse cx="11" cy="7.2" rx="0.7" ry="0.85" fill="#0a0a0c"/>
  <path d="M19.5 6.5c1.2-1.4 1.2-3.5 0-4.9" stroke="#c4a35a" stroke-width="0.7" stroke-linecap="round" opacity="0.6" fill="none"/>
  <path d="M22.2 7.8c1.9-2.2 1.9-5.6 0-7.8" stroke="#c4a35a" stroke-width="0.7" stroke-linecap="round" opacity="0.35" fill="none"/>
  <path d="M25 9c2.7-3 2.7-7.6 0-10.5" stroke="#c4a35a" stroke-width="0.7" stroke-linecap="round" opacity="0.2" fill="none"/>
</svg>
